<svg xmlns="http://www.w3.org/2000/svg" viewBox="0 0 512 512" width="512" height="512">
  <!-- 背景 -->
  <rect width="512" height="512" rx="96" fill="#0e9488"/>
  <!-- 塩の粒 -->
  <circle cx="150" cy="140" r="10" fill="#ffffff" opacity=".85"/>
  <circle cx="120" cy="200" r="7" fill="#ffffff" opacity=".6"/>
  <circle cx="380" cy="150" r="8" fill="#ffffff" opacity=".7"/>
  <circle cx="400" cy="220" r="6" fill="#ffffff" opacity=".5"/>
  <!-- 塩ふりのキャップ -->
  <rect x="196" y="88" width="120" height="60" rx="22" fill="#ffffff"/>
  <circle cx="230" cy="118" r="8" fill="#0e9488"/>
  <circle cx="256" cy="112" r="8" fill="#0e9488"/>
  <circle cx="282" cy="118" r="8" fill="#0e9488"/>
  <!-- 塩ふりの本体 -->
  <path d="M188 168 h136 a16 16 0 0 1 16 16 l14 200 a28 28 0 0 1 -28 30 H186 a28 28 0 0 1 -28 -30 l14 -200 a16 16 0 0 1 16 -16 z" fill="#ffffff"/>
  <!-- 本体の帯(減塩イメージの葉) -->
  <path d="M256 250 c-40 0 -64 26 -66 58 c30 8 62 0 78 -22 c-10 26 -34 40 -60 42 c14 14 34 20 52 16 c36 -8 52 -44 46 -92 c-18 -2 -34 -2 -50 -2 z" fill="#0e9488"/>
</svg>
